<?xml version="1.0" encoding="utf-8"?>
<!-- Generator: Adobe Illustrator 23.1.1, SVG Export Plug-In . SVG Version: 6.00 Build 0)  -->
<svg version="1.1" id="Logo" xmlns="http://www.w3.org/2000/svg" xmlns:xlink="http://www.w3.org/1999/xlink" x="0px" y="0px"
	 viewBox="0 0 159.1 37.5" style="enable-background:new 0 0 159.1 37.5;" xml:space="preserve">
<style type="text/css">
	.st0{fill:#010101;}
</style>
<g>
	<path class="st0" d="M57.6,9.9c0,2.5-0.7,4.5-2.2,6c-0.7,0.7-1.6,1.3-2.7,1.6c-1.1,0.4-2.3,0.6-3.8,0.6h-6.5v9.6
		c0,0.3-0.3,0.6-0.6,0.6h-2.1c-0.3,0-0.6-0.3-0.6-0.6V2.5c0-0.3,0.3-0.6,0.6-0.6h9.2c1.6,0,2.9,0.2,4,0.6c1.1,0.4,2,1,2.7,1.8
		C56.2,5,56.7,5.8,57,6.7C57.4,7.7,57.6,8.7,57.6,9.9z M54.1,9.9c0-1.7-0.5-2.9-1.4-3.7c-1-0.8-2.3-1.2-3.9-1.2h-6.4V15h6.4
		c1.8,0,3.1-0.4,4-1.2C53.7,12.9,54.1,11.6,54.1,9.9z"/>
	<path class="st0" d="M75.5,19.9H62.9c0,0.9,0.2,1.7,0.5,2.6c0.3,0.9,0.8,1.6,1.3,2.1c0.9,0.9,2,1.3,3.4,1.3c1.6,0,2.7-0.4,3.5-1.2
		c0.3-0.3,0.5-0.6,0.7-0.9c0.1-0.2,0.2-0.5,0.3-0.8c0.1-0.2,0.3-0.4,0.5-0.4h2c0.3,0,0.6,0.3,0.5,0.6c-0.2,0.7-0.4,1.4-0.8,2
		c-0.5,0.8-1.2,1.5-1.9,2c-0.7,0.4-1.4,0.8-2.2,1c-0.8,0.2-1.7,0.4-2.6,0.4c-1.3,0-2.5-0.3-3.6-0.8c-1-0.5-1.9-1.2-2.6-2.1
		c-0.8-0.9-1.4-2-1.8-3.2c-0.4-1.2-0.6-2.5-0.6-3.8c0-1.1,0.1-2.2,0.3-3.2c0.2-1,0.6-1.9,1.1-2.8c0.7-1.1,1.6-2.1,2.8-2.8
		C65,9.3,66.4,9,68.1,9c1.2,0,2.3,0.2,3.2,0.6c0.9,0.4,1.8,1,2.5,1.8c0.8,0.8,1.4,1.8,1.8,3c0.4,1.1,0.6,2.4,0.6,3.6l0,1.3
		C76.1,19.6,75.9,19.9,75.5,19.9z M72.9,17.2c0-0.7-0.1-1.4-0.3-2.1c-0.2-0.7-0.5-1.2-0.9-1.7c-0.4-0.5-0.9-0.9-1.5-1.2
		c-0.6-0.3-1.3-0.5-2.2-0.5c-0.8,0-1.6,0.2-2.2,0.5c-0.6,0.3-1.2,0.7-1.6,1.3c-0.4,0.5-0.7,1.1-1,1.8c-0.2,0.7-0.3,1.3-0.4,2H72.9z"
		/>
	<path class="st0" d="M90.5,11.9c0,0.3-0.3,0.5-0.6,0.5c-0.1,0-0.2,0-0.3,0c-0.3,0-0.6,0-0.9,0c-0.7,0-1.4,0.1-2,0.4
		c-0.6,0.3-1.1,0.6-1.5,1.1c-0.4,0.4-0.7,0.8-0.9,1.3c-0.2,0.5-0.4,1-0.5,1.5c-0.1,0.5-0.2,1.1-0.2,1.6c0,0.6-0.1,1.1-0.1,1.6v7.8
		c0,0.3-0.3,0.6-0.6,0.6h-2c-0.3,0-0.6-0.3-0.6-0.6V10c0-0.3,0.3-0.6,0.6-0.6h1.7c0.3,0,0.5,0.2,0.6,0.5l0.2,2.8
		c0.5-1.2,1.3-2,2.3-2.6c1-0.6,2.1-0.8,3.3-0.8c0.3,0,0.6,0,1,0c0.3,0,0.5,0.3,0.5,0.6V11.9z"/>
	<path class="st0" d="M108.7,22.7c0,0.8-0.1,1.5-0.4,2.2c-0.3,0.6-0.6,1.2-1.1,1.6c-0.7,0.7-1.6,1.3-2.7,1.6
		c-1.1,0.3-2.2,0.5-3.4,0.5c-1.2,0-2.3-0.2-3.3-0.5c-1-0.3-1.9-0.9-2.7-1.6c-0.6-0.6-1-1.2-1.3-2c-0.2-0.6-0.4-1.2-0.5-1.8
		c0-0.3,0.2-0.6,0.5-0.6l2.1,0c0.3,0,0.5,0.2,0.6,0.5c0.1,0.4,0.2,0.8,0.4,1.2c0.3,0.5,0.6,0.9,1.1,1.2c0.4,0.3,0.9,0.5,1.6,0.7
		c0.6,0.1,1.2,0.2,1.8,0.2c0.6,0,1.3-0.1,1.8-0.2c0.6-0.1,1.1-0.4,1.6-0.8c0.3-0.2,0.5-0.5,0.7-0.9c0.2-0.4,0.3-0.8,0.3-1.2
		c0-0.7-0.2-1.3-0.7-1.8c-0.5-0.5-1.2-0.8-2.2-0.9c-0.2,0-0.5-0.1-0.8-0.1c-0.3,0-0.7-0.1-1.1-0.1c-0.4,0-0.8-0.1-1.2-0.1
		c-0.4,0-0.8-0.1-1.1-0.1c-1.4-0.2-2.5-0.8-3.4-1.6c-0.8-0.9-1.2-2-1.2-3.4c0-0.7,0.2-1.4,0.5-2.1c0.3-0.7,0.7-1.2,1.1-1.6
		c0.6-0.6,1.4-1.1,2.3-1.5c0.9-0.4,2-0.6,3.2-0.6c1.3,0,2.4,0.2,3.4,0.6c1,0.4,1.9,1,2.5,1.8c0.4,0.5,0.7,1,1,1.6
		c0.2,0.4,0.3,0.9,0.3,1.4c0,0.3-0.2,0.6-0.5,0.6l-2.1,0c-0.3,0-0.5-0.2-0.6-0.5c-0.1-0.3-0.2-0.6-0.3-0.9c-0.2-0.4-0.5-0.7-0.7-1
		c-0.7-0.7-1.8-1-3.1-1c-0.4,0-0.7,0-1,0c-0.3,0-0.7,0.1-1.1,0.3c-0.6,0.2-1.1,0.6-1.4,1.1c-0.3,0.5-0.5,0.9-0.5,1.5
		c0,0.8,0.2,1.4,0.7,1.7c0.4,0.4,1.1,0.6,1.9,0.7c0.5,0.1,1.1,0.2,1.9,0.2c0.7,0.1,1.6,0.2,2.6,0.4c1.3,0.2,2.5,0.8,3.4,1.7
		C108.2,20.2,108.7,21.3,108.7,22.7z"/>
	<path class="st0" d="M129.4,18.8c0,1.6-0.2,3.1-0.7,4.5c-0.5,1.4-1.2,2.5-2.1,3.5c-0.6,0.6-1.4,1-2.2,1.4s-1.8,0.5-2.9,0.5
		c-0.5,0-1-0.1-1.6-0.2c-0.5-0.1-1-0.3-1.5-0.5c-0.5-0.2-0.9-0.5-1.4-0.8c-0.4-0.3-0.7-0.7-1-1.1v9.6c0,0.3-0.3,0.6-0.6,0.6h-2
		c-0.3,0-0.6-0.3-0.6-0.6V10.1c0-0.3,0.3-0.6,0.6-0.6h1.7c0.3,0,0.5,0.2,0.6,0.5l0.2,1.9c0.5-0.9,1.3-1.7,2.4-2.2
		c1.1-0.5,2.1-0.8,3.2-0.8c1.2,0,2.2,0.2,3.1,0.5c0.9,0.4,1.6,0.9,2.2,1.5c0.9,0.9,1.6,2,2,3.4C129.2,15.8,129.4,17.3,129.4,18.8z
		 M126.2,18.9c0-0.9-0.1-1.7-0.2-2.6c-0.2-0.9-0.4-1.6-0.8-2.3c-0.4-0.7-0.9-1.2-1.6-1.7c-0.7-0.4-1.6-0.6-2.6-0.6
		c-0.7,0-1.3,0.1-1.8,0.4c-0.5,0.2-0.9,0.5-1.3,0.9c-0.8,0.7-1.3,1.6-1.6,2.6c-0.3,1-0.4,2.2-0.4,3.4c0,1.2,0.1,2.3,0.4,3.4
		c0.3,1,0.8,1.9,1.6,2.6c0.4,0.3,0.8,0.6,1.3,0.9c0.5,0.2,1.1,0.4,1.8,0.4c1,0,1.9-0.2,2.6-0.6c0.7-0.4,1.2-1,1.6-1.7
		c0.4-0.7,0.7-1.5,0.8-2.3C126.1,20.6,126.2,19.7,126.2,18.9z"/>
	<path class="st0" d="M133.4,3.7V2.9c0-0.8,0.7-1.5,1.5-1.5h0.8c0.8,0,1.5,0.7,1.5,1.5v0.8c0,0.8-0.7,1.5-1.5,1.5h-0.8
		C134.1,5.2,133.4,4.5,133.4,3.7z M133.7,27.6V10c0-0.3,0.3-0.6,0.6-0.6h2.1c0.3,0,0.6,0.3,0.6,0.6v17.6c0,0.3-0.3,0.6-0.6,0.6h-2.1
		C133.9,28.2,133.7,27.9,133.7,27.6z"/>
	<path class="st0" d="M157,18.8c0,1.5-0.2,2.9-0.6,4.2c-0.4,1.3-1.1,2.5-2.1,3.5c-0.7,0.7-1.5,1.2-2.5,1.6c-1,0.4-2,0.6-3.2,0.6
		c-1.2,0-2.3-0.2-3.2-0.6c-1-0.4-1.8-0.9-2.5-1.6c-1-1-1.7-2.2-2.1-3.5c-0.4-1.3-0.6-2.7-0.6-4.2c0-1.5,0.2-2.9,0.6-4.2
		c0.4-1.3,1.1-2.5,2.1-3.5c0.7-0.7,1.5-1.2,2.5-1.6c0.9-0.4,2-0.6,3.2-0.6c1.2,0,2.3,0.2,3.2,0.6c0.9,0.4,1.8,0.9,2.5,1.6
		c1,1,1.7,2.2,2.1,3.5C156.8,16,157,17.3,157,18.8z M153.8,18.8c0-1.1-0.1-2.2-0.4-3.2c-0.2-1-0.7-1.9-1.4-2.6
		c-0.4-0.4-0.9-0.7-1.4-1c-0.6-0.2-1.2-0.4-1.9-0.4c-0.7,0-1.4,0.1-1.9,0.4s-1,0.6-1.4,1c-0.7,0.7-1.1,1.6-1.4,2.6
		c-0.2,1-0.4,2.1-0.4,3.2c0,1.1,0.1,2.2,0.4,3.2c0.2,1,0.7,1.9,1.4,2.6c0.4,0.4,0.9,0.7,1.4,1c0.6,0.2,1.2,0.4,1.9,0.4
		c0.7,0,1.4-0.1,1.9-0.4c0.6-0.2,1-0.6,1.4-1c0.7-0.7,1.1-1.6,1.4-2.6C153.7,21,153.8,19.9,153.8,18.8z"/>
	<path class="st0" d="M22.7,17.1v-5.8c0-0.3-0.2-0.6-0.4-0.7l-5-2.9C17.1,7.6,17,7.4,17,7.2V2.5c0-0.3-0.3-0.6-0.6-0.6h-2.2
		c-0.3,0-0.6,0.3-0.6,0.6v4.7c0,0.2-0.1,0.4-0.3,0.5l-5,2.9c-0.3,0.1-0.4,0.4-0.4,0.7v5.8c0,0.2-0.1,0.4-0.3,0.5l-5,2.9
		c-0.3,0.1-0.4,0.4-0.4,0.7v6.5c0,0.3,0.3,0.6,0.6,0.6H5c0.3,0,0.6-0.3,0.6-0.6v-4.7c0-0.2,0.1-0.4,0.3-0.5l3.5-2
		c0.2-0.1,0.4-0.1,0.5,0l3.5,2c0.2,0.1,0.3,0.3,0.3,0.5v4.7c0,0.3,0.3,0.6,0.6,0.6h2.2c0.3,0,0.6-0.3,0.6-0.6l0-4.7
		c0-0.2,0.1-0.4,0.3-0.5l3.5-2c0.2-0.1,0.4-0.1,0.5,0l3.5,2c0.2,0.1,0.3,0.3,0.3,0.5v4.7c0,0.3,0.3,0.6,0.6,0.6h2.2
		c0.3,0,0.6-0.3,0.6-0.6v-6.5c0-0.3-0.2-0.6-0.4-0.7l-5-2.9C22.8,17.4,22.7,17.3,22.7,17.1z M15.6,10.6l3.5,2
		c0.2,0.1,0.3,0.3,0.3,0.5v4c0,0.2-0.1,0.4-0.3,0.5l-3.5,2c-0.2,0.1-0.4,0.1-0.5,0l-3.5-2c-0.2-0.1-0.3-0.3-0.3-0.5v-4
		c0-0.2,0.1-0.4,0.3-0.5l3.5-2C15.2,10.5,15.4,10.5,15.6,10.6z"/>
</g>
</svg>
